<?xml version="1.0" standalone="no"?>
<!DOCTYPE svg PUBLIC "-//W3C//DTD SVG 20010904//EN"
 "http://www.w3.org/TR/2001/REC-SVG-20010904/DTD/svg10.dtd">
<svg version="1.0" xmlns="http://www.w3.org/2000/svg"
 width="3368.000000pt" height="3368.000000pt" viewBox="0 0 3368.000000 3368.000000"
 preserveAspectRatio="xMidYMid meet">
<metadata>
Created by potrace 1.11, written by Peter Selinger 2001-2013
</metadata>
<g transform="translate(0.000000,3368.000000) scale(0.100000,-0.100000)"
fill="#000000" stroke="none">
<path d="M9370 29909 c-360 -6 -452 -12 -770 -49 -282 -34 -786 -137 -1015
-209 -33 -11 -107 -34 -165 -51 -95 -29 -186 -60 -325 -111 -98 -36 -321 -127
-395 -162 -41 -19 -102 -47 -135 -62 -103 -46 -229 -106 -257 -121 -14 -8 -31
-14 -38 -14 -6 0 -18 -7 -26 -15 -9 -8 -24 -15 -34 -15 -10 0 -22 -4 -25 -10
-3 -5 -19 -10 -36 -10 -19 0 -29 -5 -29 -15 0 -10 -10 -15 -28 -15 -15 0 -33
-5 -40 -12 -7 -7 -30 -11 -52 -9 -29 2 -42 -2 -46 -13 -3 -9 -16 -16 -29 -16
-13 0 -25 -7 -29 -15 -3 -8 -16 -15 -30 -15 -14 0 -28 -4 -31 -10 -3 -5 -15
-10 -26 -10 -11 0 -22 -7 -25 -15 -4 -8 -16 -15 -29 -15 -13 0 -25 -7 -29 -15
-3 -8 -14 -15 -25 -15 -11 0 -23 -4 -26 -10 -3 -5 -15 -10 -26 -10 -11 0 -22
-7 -25 -15 -4 -8 -14 -15 -24 -15 -10 0 -23 -6 -30 -14 -6 -8 -17 -13 -24 -10
-7 3 -19 -2 -26 -11 -7 -8 -19 -15 -27 -15 -7 0 -16 -7 -19 -15 -4 -8 -12 -15
-19 -15 -16 0 -73 -29 -80 -41 -4 -5 -15 -9 -26 -9 -10 0 -19 -4 -19 -9 0 -11
-57 -41 -77 -41 -7 0 -16 -7 -19 -15 -4 -8 -14 -15 -24 -15 -10 0 -20 -7 -24
-15 -3 -9 -12 -12 -22 -8 -10 4 -20 0 -26 -10 -5 -10 -16 -17 -23 -17 -8 0
-15 -4 -15 -10 0 -5 -20 -19 -44 -30 -25 -11 -48 -24 -51 -30 -3 -5 -15 -10
-25 -10 -10 0 -23 -6 -27 -13 -4 -7 -25 -21 -45 -31 -21 -9 -38 -21 -38 -26 0
-6 -6 -10 -14 -10 -7 0 -19 -7 -26 -15 -7 -9 -19 -14 -26 -11 -7 3 -18 -2 -24
-10 -7 -8 -19 -14 -27 -14 -7 0 -16 -7 -19 -15 -4 -8 -15 -15 -25 -15 -10 0
-19 -4 -19 -10 0 -5 -7 -10 -15 -10 -9 0 -18 -7 -21 -15 -4 -8 -14 -15 -24
-15 -10 0 -21 -7 -24 -16 -3 -8 -10 -13 -15 -10 -5 3 -14 -1 -21 -9 -7 -8 -19
-15 -27 -15 -7 0 -16 -7 -19 -15 -4 -8 -14 -15 -24 -15 -10 0 -21 -7 -24 -16
-3 -8 -10 -13 -15 -10 -5 3 -14 -1 -21 -9 -7 -8 -19 -15 -26 -15 -8 0 -14 -4
-14 -10 0 -5 -20 -19 -45 -30 -25 -11 -45 -25 -45 -30 0 -6 -9 -10 -20 -10
-11 0 -20 -4 -20 -9 0 -11 -57 -41 -77 -41 -7 0 -16 -7 -19 -15 -4 -8 -13 -15
-21 -15 -9 0 -26 -11 -39 -25 -13 -14 -30 -25 -39 -25 -8 0 -15 -4 -15 -10 0
-5 -16 -17 -36 -26 -20 -9 -38 -23 -41 -31 -3 -7 -10 -13 -17 -13 -6 0 -23
-11 -38 -25 -15 -14 -32 -25 -37 -25 -6 0 -24 -12 -40 -27 -46 -43 -59 -53
-70 -53 -5 0 -29 -18 -52 -40 -24 -22 -49 -40 -56 -40 -6 0 -16 -6 -20 -13 -4
-6 -26 -25 -48 -42 -22 -16 -43 -34 -47 -39 -4 -6 -12 -11 -17 -11 -9 0 -75
-51 -113 -87 -10 -10 -21 -18 -24 -18 -4 0 -17 -11 -30 -25 -13 -14 -26 -25
-29 -25 -3 0 -19 -13 -34 -29 -16 -16 -31 -27 -34 -24 -3 2 -14 -4 -24 -14
-20 -18 -28 -25 -118 -98 -47 -38 -72 -55 -105 -72 -8 -4 -24 -17 -36 -30 -12
-13 -24 -23 -28 -23 -4 0 -26 -19 -49 -42 -24 -24 -63 -59 -87 -78 -24 -19
-62 -53 -84 -75 -23 -22 -52 -48 -66 -58 -25 -17 -125 -110 -306 -284 -53 -51
-100 -93 -103 -93 -4 0 -14 -11 -21 -25 -7 -14 -17 -25 -22 -25 -5 0 -28 -19
-51 -42 -24 -24 -63 -59 -87 -78 -65 -53 -170 -153 -170 -163 0 -7 56 19 70
33 3 3 21 14 40 24 19 11 37 22 40 25 3 3 23 15 45 26 22 11 42 22 45 25 3 3
21 13 40 24 87 46 125 70 128 78 2 4 12 8 22 8 9 0 23 7 30 15 7 8 19 15 26
15 8 0 14 3 14 8 0 4 15 13 32 21 18 7 49 23 68 36 19 12 46 26 60 30 14 4 27
11 30 14 3 4 25 17 50 29 25 12 56 28 70 36 14 8 70 36 125 62 55 27 102 51
105 55 3 3 18 9 34 13 17 4 42 16 57 27 15 10 30 19 34 19 6 0 37 13 143 61
81 37 127 57 167 74 22 10 60 26 85 37 25 11 54 23 65 28 90 36 205 84 230 95
17 7 59 23 95 35 36 12 79 28 95 35 17 8 43 17 59 21 16 4 41 13 55 20 14 8
32 14 39 14 7 0 20 4 30 10 9 5 67 26 127 45 61 20 124 43 140 50 17 7 46 16
65 20 19 4 49 13 65 20 111 48 1009 273 1280 320 44 8 130 23 190 34 356 63
648 99 1145 141 350 29 935 38 1355 20 295 -13 730 -48 920 -75 55 -8 138 -19
185 -25 294 -37 586 -91 955 -175 254 -57 859 -216 895 -235 8 -4 42 -15 75
-24 33 -9 69 -21 80 -26 11 -5 63 -23 115 -40 52 -18 102 -34 110 -37 8 -4 18
-7 22 -7 3 -1 10 -4 14 -8 4 -5 14 -8 23 -8 9 -1 34 -9 56 -20 22 -11 47 -20
55 -20 8 0 27 -6 41 -14 14 -7 38 -16 54 -20 38 -10 204 -74 237 -92 14 -7 31
-14 37 -14 6 0 34 -11 63 -25 28 -14 57 -25 64 -25 7 0 25 -6 41 -14 15 -8 46
-22 68 -31 42 -17 68 -28 125 -53 19 -9 49 -21 65 -28 17 -7 46 -20 67 -28 20
-9 50 -16 67 -16 17 0 31 -4 31 -10 0 -5 11 -10 24 -10 13 0 26 -7 30 -15 3
-8 14 -15 25 -15 11 0 23 -4 26 -10 3 -5 17 -10 31 -10 14 0 27 -7 30 -15 4
-8 16 -15 29 -15 13 0 25 -7 29 -15 3 -8 14 -15 25 -15 11 0 23 -4 26 -10 3
-5 15 -10 26 -10 11 0 22 -7 25 -15 4 -8 14 -15 24 -15 10 0 23 -7 30 -15 7
-9 19 -14 26 -11 7 3 18 -2 24 -10 7 -8 21 -14 32 -14 10 0 21 -7 24 -15 4 -8
14 -15 24 -15 10 0 20 -7 24 -15 3 -8 11 -12 19 -9 8 3 20 -2 27 -11 7 -8 21
-15 31 -15 10 0 22 -6 26 -12 11 -17 49 -38 68 -38 9 0 18 -7 21 -15 4 -8 14
-15 24 -15 10 0 21 -7 24 -16 3 -9 13 -14 20 -11 8 3 20 -1 26 -9 7 -8 18 -14
26 -14 7 0 17 -6 21 -13 4 -7 25 -22 46 -33 72 -36 77 -39 77 -46 0 -4 20 -17
45 -28 25 -11 45 -25 45 -30 0 -6 9 -10 20 -10 11 0 20 -4 20 -10 0 -5 20 -19
45 -30 25 -11 45 -24 45 -28 0 -4 18 -15 40 -25 22 -9 40 -21 40 -27 0 -5 11
-10 25 -10 14 0 25 -4 25 -10 0 -5 20 -19 45 -30 25 -11 45 -25 45 -30 0 -6 9
-10 19 -10 10 0 22 -7 25 -16 3 -8 10 -12 16 -9 6 3 13 -1 16 -9 3 -9 14 -16
24 -16 10 0 20 -7 24 -15 3 -8 11 -15 19 -15 7 0 33 -18 58 -40 24 -22 48 -40
52 -40 5 0 15 -6 22 -12 29 -26 40 -34 58 -41 9 -3 17 -11 17 -17 0 -5 7 -10
15 -10 8 0 15 -4 15 -10 0 -5 6 -10 13 -10 6 0 32 -18 57 -40 25 -22 50 -40
55 -40 6 0 30 -18 54 -40 23 -22 46 -40 51 -40 4 0 10 -7 14 -15 3 -8 11 -15
18 -15 8 0 28 -12 45 -27 64 -57 116 -98 141 -113 14 -8 33 -22 42 -30 9 -8
28 -24 41 -35 129 -106 168 -135 178 -135 6 0 11 -4 11 -10 0 -5 9 -10 20 -10
11 0 20 -7 20 -15 0 -8 5 -15 11 -15 6 0 16 -6 23 -12 7 -7 32 -29 56 -48 23
-19 51 -43 61 -52 11 -10 23 -18 27 -18 5 0 15 -11 22 -25 7 -14 17 -25 21
-25 7 0 23 -12 84 -65 50 -43 159 -143 219 -200 35 -33 105 -98 155 -145 51
-47 123 -115 161 -152 37 -38 73 -68 79 -68 12 0 330 -318 483 -482 47 -51
112 -120 142 -153 31 -33 56 -63 56 -67 0 -5 6 -8 13 -8 8 0 20 -11 27 -25 7
-14 17 -25 22 -25 4 0 8 -7 8 -15 0 -8 6 -15 13 -15 6 0 23 -15 37 -32 14 -18
36 -41 49 -53 50 -43 108 -104 163 -172 31 -38 69 -83 85 -99 15 -16 46 -51
68 -78 22 -27 46 -54 53 -62 6 -7 12 -17 12 -23 0 -6 6 -11 13 -11 8 0 48 -44
90 -97 42 -54 87 -110 99 -125 34 -39 48 -56 102 -125 27 -35 52 -63 55 -63 4
0 31 -31 61 -70 30 -38 58 -70 62 -70 3 0 9 -8 12 -17 3 -10 16 -29 29 -43 43
-47 184 -225 198 -250 8 -14 16 -27 19 -30 22 -21 90 -111 103 -135 9 -16 29
-44 44 -62 49 -55 62 -72 77 -100 8 -15 38 -53 66 -83 29 -30 64 -73 77 -94
14 -22 36 -51 49 -65 13 -14 31 -39 38 -56 8 -16 29 -45 45 -63 17 -18 31 -37
31 -41 0 -5 18 -31 40 -59 22 -27 40 -53 40 -57 0 -5 15 -26 33 -49 19 -23 39
-51 45 -63 7 -12 18 -28 24 -35 7 -8 20 -26 28 -40 43 -76 150 -223 212 -292
10 -11 20 -28 24 -38 3 -10 16 -30 30 -45 13 -14 24 -30 24 -34 0 -9 60 -101
71 -109 4 -3 20 -28 35 -55 30 -53 67 -112 81 -131 9 -12 18 -26 69 -109 21
-33 45 -69 54 -80 9 -11 29 -42 45 -70 16 -27 31 -52 34 -55 4 -3 11 -16 18
-30 6 -14 24 -40 39 -58 15 -18 32 -41 38 -51 6 -10 24 -38 41 -62 36 -53 47
-71 75 -127 12 -23 28 -48 34 -55 7 -7 26 -35 42 -64 16 -28 57 -98 91 -155
35 -58 63 -110 63 -116 0 -7 4 -12 8 -12 4 0 20 -24 36 -52 34 -65 84 -145
114 -182 12 -16 22 -33 22 -39 0 -6 6 -18 14 -26 8 -9 28 -42 45 -73 44 -83
55 -102 62 -108 3 -3 15 -25 27 -50 12 -25 37 -68 56 -97 19 -29 38 -63 41
-75 4 -13 13 -30 20 -38 8 -8 18 -26 24 -40 6 -14 22 -43 36 -65 14 -22 32
-53 40 -70 9 -16 21 -39 28 -50 42 -69 127 -225 127 -234 0 -6 4 -11 8 -11 4
0 47 -78 96 -172 48 -95 92 -180 97 -188 5 -8 16 -31 24 -50 9 -19 19 -42 24
-50 48 -80 131 -231 131 -239 0 -5 4 -11 8 -13 5 -1 30 -48 56 -103 26 -55 51
-107 57 -115 5 -8 16 -31 25 -50 13 -29 276 -556 320 -640 7 -14 30 -63 52
-110 22 -47 61 -129 86 -182 25 -53 46 -100 46 -104 0 -4 6 -15 13 -23 8 -9
26 -47 41 -86 15 -38 33 -77 40 -85 7 -8 21 -35 30 -60 10 -25 24 -55 32 -67
7 -12 28 -57 45 -100 17 -43 35 -80 40 -83 4 -3 20 -37 34 -75 15 -39 35 -84
46 -101 10 -17 34 -70 53 -116 19 -47 46 -108 60 -134 14 -27 34 -74 46 -104
12 -30 35 -82 52 -115 16 -32 47 -102 68 -155 21 -53 47 -111 58 -130 11 -19
64 -145 117 -280 54 -135 103 -252 110 -260 7 -8 35 -71 63 -140 78 -196 328
-817 456 -1132 64 -158 116 -293 116 -300 0 -8 40 -115 90 -238 49 -123 90
-230 90 -236 0 -7 24 -72 53 -146 30 -73 54 -140 54 -148 1 -8 22 -66 47 -128
25 -63 46 -120 46 -127 0 -8 22 -69 50 -137 27 -68 50 -130 50 -138 0 -9 16
-53 35 -99 19 -45 35 -90 35 -100 0 -9 15 -53 34 -98 19 -44 41 -105 49 -134
17 -60 37 -119 79 -229 15 -41 28 -82 28 -90 0 -9 15 -51 33 -95 18 -44 34
-89 34 -100 1 -11 13 -46 27 -78 14 -32 26 -66 26 -76 0 -10 11 -44 25 -75 14
-31 25 -65 25 -75 0 -11 10 -41 21 -68 12 -26 25 -64 29 -83 4 -19 16 -57 25
-85 10 -27 28 -79 40 -115 12 -36 30 -87 39 -115 10 -27 20 -61 23 -75 3 -14
13 -47 23 -75 10 -27 28 -84 40 -125 13 -41 33 -102 46 -135 13 -33 24 -67 24
-75 0 -8 13 -49 28 -90 34 -88 62 -174 68 -204 4 -21 26 -102 44 -161 19 -62
40 -132 60 -200 11 -38 27 -92 36 -120 8 -27 19 -66 24 -85 5 -19 23 -68 40
-109 16 -41 28 -76 25 -79 -2 -2 1 -14 7 -26 6 -11 15 -37 19 -56 4 -19 15
-60 25 -90 9 -30 22 -75 30 -100 28 -93 55 -186 59 -205 6 -25 27 -102 49
-175 9 -30 25 -86 36 -125 11 -38 27 -95 36 -125 9 -30 20 -71 24 -90 4 -19
13 -50 19 -67 28 -84 34 -102 48 -163 8 -36 21 -81 28 -100 8 -19 21 -66 30
-105 8 -38 20 -87 25 -107 6 -21 15 -57 21 -80 6 -24 17 -62 25 -84 8 -23 16
-50 19 -60 12 -61 36 -156 50 -204 10 -30 21 -71 25 -90 8 -33 23 -91 70 -262
10 -40 29 -104 40 -143 28 -93 38 -128 54 -200 8 -33 21 -85 29 -115 8 -30 22
-91 31 -135 10 -44 22 -98 28 -120 5 -22 14 -58 19 -80 6 -22 15 -53 20 -70 6
-16 18 -68 28 -115 9 -47 23 -95 29 -107 7 -12 12 -31 12 -42 0 -11 5 -32 12
-46 l11 -25 1579 0 c1555 0 1578 0 1578 19 0 11 -4 23 -10 26 -5 3 -10 22 -10
41 0 19 -4 34 -10 34 -5 0 -10 18 -10 40 0 22 -4 40 -10 40 -5 0 -10 18 -10
39 0 22 -4 43 -10 46 -5 3 -10 22 -10 41 0 19 -4 34 -10 34 -5 0 -10 18 -10
39 0 22 -4 43 -10 46 -5 3 -10 22 -10 41 0 19 -5 34 -11 34 -8 0 -10 16 -6 50
5 40 3 52 -9 57 -12 4 -14 16 -9 53 5 38 3 48 -10 54 -12 4 -14 14 -10 39 5
26 3 36 -10 40 -12 5 -14 15 -10 40 5 26 3 36 -10 40 -12 5 -14 15 -10 40 5
26 3 36 -10 40 -12 5 -14 15 -10 40 5 26 3 36 -10 40 -12 5 -14 15 -10 40 5
26 3 36 -9 40 -9 4 -16 17 -16 31 0 14 -5 28 -11 32 -6 3 -8 17 -4 31 4 17 0
32 -11 44 -11 12 -14 27 -10 44 5 18 2 27 -10 32 -12 4 -14 14 -10 38 5 23 2
36 -10 46 -10 8 -14 22 -10 40 3 17 0 32 -9 39 -8 7 -15 21 -15 31 0 10 -5 21
-11 25 -6 3 -9 19 -5 34 3 18 0 33 -9 40 -9 7 -14 24 -13 39 1 15 -1 32 -6 39
-4 6 -9 22 -11 34 -3 12 -10 25 -16 29 -7 4 -10 19 -6 37 4 21 1 34 -9 43 -8
6 -12 20 -9 30 4 10 0 29 -7 41 -7 13 -14 32 -15 43 -5 47 -16 86 -24 91 -5 3
-9 22 -9 43 0 20 -4 41 -8 47 -9 9 -43 114 -62 194 -26 105 -32 126 -41 142
-5 10 -9 29 -9 43 0 14 -4 25 -10 25 -5 0 -10 10 -10 22 0 20 -13 68 -31 113
-9 24 -19 71 -22 102 -1 12 -5 25 -9 29 -5 4 -8 24 -8 45 0 21 -4 41 -10 44
-5 3 -10 24 -10 45 0 21 -4 42 -10 45 -5 3 -10 19 -10 35 0 16 -4 32 -10 35
-5 3 -10 19 -10 35 0 16 -4 32 -10 35 -5 3 -10 19 -10 35 0 16 -4 32 -10 35
-5 3 -10 19 -10 36 0 16 -4 29 -10 29 -5 0 -10 16 -10 35 0 19 -4 35 -10 35
-5 0 -10 9 -10 19 0 11 -4 23 -10 26 -5 3 -10 19 -10 35 0 16 -5 32 -11 36 -6
3 -9 15 -6 25 3 10 -1 26 -8 36 -8 10 -12 27 -9 39 3 12 -1 26 -10 33 -9 7
-13 18 -10 23 6 9 -1 29 -27 80 -5 10 -9 29 -9 42 0 14 -4 28 -10 31 -5 3 -10
17 -10 30 0 14 -9 40 -20 60 -11 20 -20 46 -20 60 0 13 -4 27 -10 30 -5 3 -10
19 -10 35 0 16 -4 32 -10 35 -5 3 -10 17 -10 31 0 13 -5 34 -12 47 -26 50 -28
58 -23 67 3 5 -1 20 -10 33 -8 13 -12 27 -8 30 6 6 -2 27 -28 79 -5 10 -9 29
-9 42 0 14 -4 28 -10 31 -5 3 -10 19 -10 36 0 16 -4 29 -10 29 -5 0 -10 7 -10
15 0 8 -4 24 -10 35 -5 11 -14 29 -20 40 -5 11 -10 31 -10 45 0 14 -4 25 -10
25 -5 0 -10 9 -10 19 0 11 -4 23 -10 26 -5 3 -10 19 -10 35 0 16 -4 32 -10 35
-5 3 -10 17 -10 31 0 13 -4 32 -9 42 -16 30 -24 56 -22 74 1 9 -3 19 -9 23 -5
3 -10 19 -10 35 0 16 -4 32 -10 35 -5 3 -10 26 -10 51 0 24 -4 44 -10 44 -5 0
-10 9 -10 19 0 11 -4 23 -10 26 -5 3 -10 19 -10 35 0 16 -4 32 -10 35 -5 3
-10 15 -10 26 0 10 -4 19 -10 19 -5 0 -10 11 -10 25 0 14 -5 35 -12 48 -24 48
-28 57 -28 77 0 10 -9 36 -21 56 -11 20 -18 43 -15 51 3 7 2 21 -3 31 -39 79
-51 106 -51 123 0 11 -4 28 -10 39 -5 11 -14 29 -20 40 -5 11 -10 31 -10 45 0
14 -4 25 -10 25 -5 0 -10 7 -10 15 0 8 -4 23 -9 33 -40 79 -51 107 -51 127 0
13 -4 27 -10 30 -5 3 -10 13 -10 22 0 14 -20 66 -41 105 -5 10 -9 27 -9 38 0
11 -4 28 -9 38 -40 79 -51 107 -51 127 0 13 -4 27 -10 30 -5 3 -10 15 -10 26
0 10 -4 19 -10 19 -5 0 -10 9 -10 19 0 11 -4 23 -10 26 -5 3 -10 17 -10 31 0
13 -4 32 -9 42 -21 39 -41 91 -41 105 0 9 -4 19 -10 22 -5 3 -10 19 -10 35 0
16 -4 32 -10 35 -5 3 -10 17 -10 30 0 14 -9 40 -20 60 -11 20 -20 46 -20 60 0
13 -4 27 -10 30 -5 3 -10 15 -10 26 0 10 -4 19 -10 19 -5 0 -10 7 -10 15 0 8
-5 25 -12 38 -24 47 -28 57 -28 72 0 8 -4 15 -10 15 -5 0 -10 11 -10 25 0 14
-4 33 -9 43 -8 14 -17 36 -26 62 -2 6 -14 38 -24 65 -5 11 -18 40 -30 63 -11
24 -21 54 -21 67 0 13 -4 27 -10 30 -5 3 -10 14 -10 24 0 10 -9 26 -20 36 -11
10 -20 26 -20 36 0 10 -4 21 -10 24 -5 3 -10 17 -10 30 0 14 -9 40 -20 60 -11
20 -20 40 -20 46 0 11 -23 67 -41 101 -5 10 -9 25 -9 33 0 8 -4 15 -10 15 -5
0 -10 7 -10 15 0 8 -4 23 -9 33 -5 9 -19 40 -31 67 -12 28 -26 58 -31 67 -5
10 -9 25 -9 33 0 8 -4 15 -10 15 -5 0 -10 7 -10 15 0 8 -4 23 -9 33 -8 14 -17
36 -26 62 -9 26 -18 48 -26 62 -5 10 -9 25 -9 33 0 8 -4 15 -10 15 -5 0 -10
16 -10 35 0 19 -4 35 -10 35 -5 0 -10 11 -10 25 0 14 -4 34 -10 45 -5 11 -14
29 -20 40 -5 11 -10 27 -10 35 0 8 -4 15 -10 15 -5 0 -10 7 -10 15 0 8 -4 23
-9 33 -26 50 -51 110 -57 135 -3 15 -10 30 -15 33 -5 3 -9 13 -9 23 0 10 -9
26 -20 36 -11 10 -20 26 -20 36 0 10 -4 21 -10 24 -5 3 -10 15 -10 26 0 10 -4
19 -10 19 -5 0 -10 9 -10 19 0 11 -4 23 -10 26 -5 3 -10 14 -10 24 0 10 -9 26
-20 36 -11 10 -20 24 -20 31 0 7 -9 30 -20 49 -11 20 -18 40 -15 45 2 4 -2 13
-10 20 -8 7 -13 16 -10 20 4 7 -7 35 -46 112 -5 10 -9 25 -9 33 0 8 -4 15 -10
15 -5 0 -10 9 -10 19 0 11 -4 23 -10 26 -5 3 -10 15 -10 26 0 10 -4 19 -10 19
-5 0 -10 8 -10 18 0 11 -9 27 -20 37 -11 10 -20 24 -20 32 0 7 -4 21 -9 31 -8
14 -17 36 -26 62 -9 26 -18 48 -26 62 -5 10 -9 22 -9 28 0 6 -9 20 -20 32 -11
12 -20 30 -20 40 0 10 -4 18 -10 18 -5 0 -10 11 -10 25 0 14 -4 34 -10 45 -5
11 -14 29 -20 40 -5 11 -10 27 -10 35 0 8 -4 15 -10 15 -5 0 -10 8 -10 18 0
11 -9 27 -20 37 -11 10 -20 26 -20 35 0 9 -3 20 -7 24 -4 3 -8 13 -9 21 -1 8
-9 29 -18 46 -9 18 -16 37 -16 44 0 7 -9 20 -20 30 -11 10 -20 26 -20 36 0 10
-4 21 -10 24 -5 3 -10 15 -10 26 0 10 -4 19 -10 19 -5 0 -10 9 -10 19 0 11 -4
23 -10 26 -5 3 -10 14 -10 24 0 10 -9 26 -20 36 -11 10 -20 26 -20 35 0 9 -9
25 -20 35 -11 10 -17 21 -15 26 3 4 1 10 -5 14 -5 3 -10 14 -10 24 0 10 -9 26
-20 36 -11 10 -20 24 -20 32 0 7 -4 21 -9 31 -5 9 -19 38 -31 65 -13 26 -27
47 -32 47 -4 0 -8 7 -8 15 0 8 -4 23 -9 33 -43 84 -81 166 -81 176 0 7 -9 21
-20 31 -11 10 -20 26 -20 36 0 10 -4 21 -10 24 -5 3 -10 15 -10 26 0 10 -4 19
-10 19 -5 0 -10 9 -10 19 0 11 -4 23 -10 26 -5 3 -10 14 -10 24 0 10 -9 26
-20 36 -11 10 -20 25 -21 34 0 9 -9 30 -20 46 -10 17 -21 37 -25 45 -3 8 -10
23 -15 32 -5 10 -9 24 -9 31 0 8 -9 22 -20 32 -11 10 -20 24 -20 31 0 7 -9 29
-20 49 -11 20 -20 42 -20 49 0 7 -9 21 -20 31 -11 10 -20 26 -20 35 0 9 -9 25
-20 35 -11 10 -20 26 -20 35 0 9 -5 21 -12 28 -7 7 -8 12 -4 12 5 0 4 6 -2 13
-5 6 -19 29 -31 50 -12 20 -30 53 -41 72 -11 20 -20 42 -20 49 0 7 -9 21 -20
31 -11 10 -20 26 -20 35 0 9 -9 25 -20 35 -11 10 -20 26 -20 35 0 9 -9 25 -19
34 -11 10 -18 23 -15 30 3 7 -4 21 -16 31 -11 10 -20 24 -20 31 0 7 -10 30
-22 51 -11 21 -30 55 -41 76 -12 20 -24 37 -29 37 -4 0 -8 8 -8 18 0 10 -4 22
-9 28 -23 23 -51 88 -46 103 3 11 -3 25 -15 36 -11 10 -20 26 -20 35 0 9 -9
25 -20 35 -11 10 -20 26 -20 35 0 9 -9 25 -20 35 -11 10 -20 26 -20 35 0 9 -9
25 -20 35 -11 10 -20 25 -20 33 0 8 -13 29 -30 48 -16 18 -32 49 -35 68 -4 19
-16 42 -26 52 -10 9 -19 25 -19 34 0 9 -9 25 -20 35 -11 10 -20 24 -20 32 0 8
-9 23 -20 35 -11 12 -20 28 -20 35 0 8 -9 23 -20 35 -11 12 -20 29 -20 38 0 9
-11 27 -25 40 -14 13 -25 31 -25 40 0 9 -9 25 -20 35 -11 10 -20 26 -20 35 0
9 -9 25 -20 35 -11 10 -20 26 -20 35 0 9 -9 25 -20 35 -11 10 -20 26 -20 35 0
9 -9 25 -20 35 -11 10 -20 26 -20 35 0 9 -9 25 -20 35 -11 10 -17 21 -15 25 3
4 -4 19 -15 33 -11 14 -20 30 -20 36 0 7 -9 21 -20 33 -11 12 -20 28 -20 35 0
8 -9 23 -20 35 -11 12 -20 30 -20 40 0 10 -4 18 -8 18 -5 0 -15 12 -22 28 -8
15 -25 43 -39 62 -14 19 -26 41 -27 48 -2 8 -10 22 -18 31 -9 10 -16 24 -16
33 0 8 -9 23 -20 33 -11 10 -20 24 -20 32 0 8 -13 28 -30 46 -16 18 -30 39
-30 48 0 9 -9 24 -20 34 -11 10 -20 26 -20 35 0 9 -11 27 -25 40 -14 13 -25
30 -25 38 0 8 -18 36 -40 62 -22 26 -40 54 -40 62 0 8 -13 27 -30 43 -16 16
-30 36 -30 45 0 9 -9 25 -20 35 -12 10 -19 24 -16 31 3 7 -4 20 -15 30 -10 9
-19 25 -19 34 0 9 -9 25 -20 35 -11 10 -20 26 -20 35 0 9 -9 25 -20 35 -11 10
-20 26 -20 35 0 9 -9 25 -20 35 -11 10 -20 26 -20 35 0 9 -11 27 -25 40 -14
13 -25 31 -25 39 0 9 -14 30 -30 48 -17 18 -30 38 -30 45 0 12 -15 32 -76 100
-13 15 -24 33 -24 39 0 7 -12 28 -27 48 -15 19 -28 42 -30 49 -1 8 -13 27 -27
41 -14 15 -26 33 -26 40 0 7 -18 35 -40 61 -22 26 -40 52 -40 57 0 5 -13 24
-30 43 -16 19 -29 42 -30 51 0 8 -11 26 -25 39 -14 13 -25 31 -25 40 0 9 -8
24 -19 34 -10 9 -28 37 -41 61 -13 24 -31 52 -41 61 -11 10 -19 24 -19 31 0 8
-16 33 -35 56 -19 22 -35 46 -35 52 0 7 -18 33 -40 58 -22 25 -40 51 -40 57 0
7 -18 34 -40 60 -22 26 -40 53 -40 60 0 7 -16 30 -35 51 -19 22 -35 45 -35 53
0 7 -18 34 -40 59 -22 25 -40 50 -40 57 0 6 -17 31 -37 56 -21 25 -37 48 -37
52 2 8 -23 44 -65 92 -17 19 -31 41 -31 48 0 7 -13 27 -30 45 -16 18 -30 38
-30 45 0 8 -20 38 -45 66 -25 29 -45 59 -45 67 0 8 -23 39 -50 69 -27 30 -50
61 -50 68 0 8 -20 38 -45 66 -25 29 -45 59 -45 65 0 12 -97 133 -112 139 -5 2
-8 11 -8 19 0 21 -59 93 -76 93 -8 0 -14 7 -14 16 0 9 -27 47 -60 84 -33 37
-60 73 -60 80 0 7 -13 29 -30 50 -16 20 -27 39 -25 42 3 2 -18 31 -45 63 -28
33 -50 65 -50 72 0 8 -13 28 -29 46 -75 83 -121 142 -121 154 0 11 -23 41 -65
87 -6 6 -60 70 -120 141 -60 72 -117 139 -127 149 -10 11 -18 27 -18 36 0 9
-12 27 -26 41 -15 13 -32 38 -39 54 -8 17 -54 78 -104 137 -50 59 -91 112 -91
118 0 16 -61 90 -74 90 -7 0 -18 8 -26 18 -8 9 -50 58 -92 108 -43 50 -78 96
-78 103 0 6 -47 66 -104 134 -57 67 -105 130 -107 139 -5 23 -211 267 -226
267 -7 1 -67 67 -135 149 -67 81 -157 182 -200 226 -43 43 -78 82 -78 86 0 4
-12 15 -26 25 -42 27 -64 49 -64 63 0 7 -7 15 -15 18 -8 4 -15 14 -15 25 0 10
-13 26 -30 36 -16 9 -30 24 -30 33 0 9 -13 26 -30 38 -16 13 -30 28 -30 35 0
7 -13 23 -30 35 -16 13 -30 29 -30 37 0 8 -16 27 -35 42 -19 15 -35 34 -35 41
0 7 -20 27 -45 44 -25 18 -45 39 -45 47 0 9 -14 25 -30 36 -16 11 -30 28 -30
37 0 9 -13 25 -30 35 -16 9 -30 25 -30 34 0 9 -13 26 -30 39 -17 13 -30 28
-30 35 0 6 -13 21 -30 33 -16 13 -30 28 -30 35 0 7 -16 25 -35 40 -19 15 -35
32 -35 37 0 17 -484 507 -590 597 -24 21 -62 55 -83 76 -22 20 -42 37 -44 37
-3 0 -31 25 -63 56 -32 31 -69 63 -82 72 -13 8 -48 41 -78 74 -31 32 -60 58
-65 58 -4 0 -29 22 -54 48 -25 26 -61 57 -78 67 -18 11 -33 23 -33 27 0 4 -4
8 -9 8 -8 0 -99 85 -285 265 -29 28 -76 70 -106 95 -112 94 -206 174 -221 189
-9 9 -38 34 -64 56 -26 22 -64 54 -84 71 -86 75 -398 324 -475 379 -38 28 -85
62 -105 77 -20 15 -61 45 -91 65 -30 21 -61 44 -69 51 -13 12 -119 87 -153
107 -53 32 -114 74 -143 98 -18 15 -36 27 -40 27 -7 0 -112 66 -177 111 -15
11 -31 19 -36 19 -5 0 -16 7 -23 16 -7 9 -22 20 -34 25 -11 6 -29 15 -40 22
-12 7 -54 32 -95 56 -41 24 -91 55 -111 68 -19 12 -38 23 -42 23 -4 0 -26 12
-49 26 -106 67 -510 276 -748 387 -41 19 -114 53 -162 76 -48 22 -90 41 -93
41 -5 0 -38 14 -130 55 -57 25 -80 35 -195 80 -63 25 -124 49 -135 54 -46 20
-194 74 -274 101 -47 16 -120 41 -161 56 -127 45 -490 155 -640 195 -41 11
-106 28 -145 39 -38 10 -81 22 -95 25 -14 3 -56 12 -95 20 -38 9 -117 26 -175
40 -58 13 -166 36 -240 50 -74 14 -166 32 -205 40 -38 7 -106 19 -150 25 -44
6 -102 15 -130 20 -27 5 -88 14 -135 20 -47 6 -114 15 -150 20 -192 27 -493
54 -785 70 -296 16 -326 16 -735 9z"/>
<path d="M13290 29900 l-125 -5 60 -17 c33 -9 128 -37 210 -62 83 -25 188 -56
235 -70 47 -14 94 -30 105 -35 11 -5 45 -17 75 -26 30 -9 62 -20 70 -24 8 -5
40 -16 71 -24 31 -9 69 -24 85 -32 16 -8 34 -15 41 -15 6 0 44 -13 85 -29 40
-16 105 -41 143 -56 39 -15 89 -36 112 -46 23 -11 45 -19 48 -19 5 0 67 -26
120 -50 18 -9 72 -31 85 -35 21 -7 75 -31 126 -56 33 -16 66 -29 72 -29 7 0
12 -4 12 -10 0 -5 5 -10 12 -10 6 0 41 -14 77 -31 36 -18 98 -47 137 -65 38
-19 75 -34 81 -34 6 0 13 -3 15 -8 2 -4 35 -23 73 -42 39 -19 72 -37 75 -40 3
-3 28 -16 55 -29 28 -13 62 -33 78 -43 15 -11 27 -16 27 -13 0 3 12 -2 28 -12
15 -11 46 -27 70 -38 23 -10 42 -21 42 -25 0 -5 11 -11 25 -14 14 -4 25 -11
25 -16 0 -6 9 -10 20 -10 11 0 20 -4 20 -10 0 -5 11 -12 25 -16 14 -3 25 -10
25 -14 0 -5 10 -12 22 -16 12 -3 44 -21 72 -39 28 -17 58 -35 66 -39 23 -11
52 -29 87 -53 17 -13 36 -23 42 -23 6 0 11 -4 11 -9 0 -5 10 -13 22 -17 12 -3
30 -15 41 -25 11 -10 23 -16 27 -14 3 2 19 -7 35 -21 15 -13 33 -24 39 -24 6
0 24 -11 40 -25 16 -14 32 -25 35 -25 3 0 19 -11 35 -25 16 -14 34 -25 40 -25
6 0 29 -16 51 -35 22 -19 44 -35 49 -35 4 0 21 -10 36 -22 15 -13 36 -29 46
-35 60 -39 139 -98 142 -105 2 -4 8 -8 13 -8 9 0 109 -71 137 -97 7 -6 52 -40
100 -74 48 -35 130 -99 183 -143 52 -45 108 -90 124 -101 23 -17 97 -78 142
-119 6 -6 30 -27 53 -46 23 -19 57 -48 75 -65 18 -16 47 -41 64 -55 18 -14 42
-35 54 -46 12 -12 63 -57 112 -99 94 -81 105 -92 247 -230 48 -47 92 -85 98
-85 6 0 8 -4 5 -10 -3 -5 -1 -10 4 -10 14 0 40 -21 116 -92 34 -32 65 -58 70
-58 4 0 32 -27 62 -60 30 -33 60 -60 65 -60 6 0 25 -16 44 -35 18 -19 35 -35
38 -35 3 0 18 -12 34 -27 45 -43 71 -63 82 -63 6 0 10 -5 10 -11 0 -11 25 -39
35 -39 7 0 476 -470 578 -578 37 -40 67 -76 67 -80 0 -4 14 -16 30 -25 17 -10
30 -26 30 -35 0 -10 14 -26 30 -35 17 -10 30 -26 30 -35 0 -10 14 -26 30 -35
17 -10 30 -26 30 -35 0 -9 14 -26 30 -37 16 -11 30 -27 30 -35 0 -17 34 -50
50 -50 6 0 10 -8 10 -18 0 -18 13 -31 68 -70 17 -13 32 -29 32 -37 0 -8 14
-23 30 -35 17 -12 30 -29 30 -39 0 -9 14 -25 30 -34 17 -10 30 -26 30 -35 0
-10 14 -26 30 -35 17 -10 30 -26 30 -35 0 -10 14 -26 30 -35 17 -10 30 -26 30
-36 0 -11 7 -21 15 -25 8 -3 15 -13 15 -23 0 -10 20 -31 45 -48 24 -16 45 -38
45 -47 0 -10 5 -18 10 -18 15 0 84 -72 195 -205 28 -33 60 -71 72 -85 40 -46
58 -67 87 -104 15 -20 34 -36 42 -36 7 0 19 -8 26 -19 7 -10 31 -39 53 -63 22
-25 56 -65 75 -89 19 -24 45 -54 58 -67 12 -13 22 -31 22 -40 0 -9 15 -33 33
-52 17 -20 57 -65 87 -100 30 -36 62 -72 72 -81 10 -9 18 -23 18 -32 0 -15 54
-86 129 -167 22 -25 41 -48 41 -52 0 -5 6 -8 13 -8 17 0 87 -77 87 -94 0 -7 8
-22 18 -34 9 -11 24 -29 32 -39 57 -71 116 -139 127 -146 7 -4 13 -16 13 -26
0 -11 16 -36 35 -57 19 -22 35 -45 35 -51 0 -11 13 -31 45 -67 16 -17 108
-128 125 -149 8 -11 20 -24 25 -31 6 -6 38 -43 73 -82 34 -40 62 -78 62 -85 0
-8 34 -53 75 -101 41 -48 75 -92 75 -98 0 -13 68 -100 88 -113 6 -4 12 -17 12
-27 0 -11 11 -30 25 -44 14 -14 25 -30 25 -37 0 -6 26 -44 57 -83 32 -39 57
-77 55 -83 -2 -7 6 -13 18 -13 11 0 20 -3 20 -7 0 -5 14 -22 30 -40 17 -18 30
-38 30 -46 0 -7 8 -22 18 -33 54 -60 102 -124 102 -135 1 -8 21 -36 45 -63 25
-28 45 -55 45 -62 0 -7 23 -40 51 -74 28 -33 49 -63 46 -66 -6 -6 10 -28 61
-80 17 -19 32 -41 32 -50 0 -8 13 -29 30 -47 16 -18 30 -39 30 -47 0 -13 32
-54 86 -112 9 -9 14 -21 11 -25 -3 -5 12 -28 34 -51 21 -23 39 -50 39 -60 1
-9 19 -35 40 -57 22 -22 40 -46 40 -54 0 -8 16 -33 35 -57 19 -23 35 -48 35
-56 0 -7 18 -32 40 -56 22 -23 40 -49 40 -57 0 -9 17 -34 38 -57 20 -22 36
-45 35 -52 -1 -6 16 -31 37 -56 22 -24 40 -51 40 -60 0 -9 14 -29 30 -45 17
-16 30 -36 30 -44 0 -9 14 -30 30 -48 17 -18 30 -39 30 -47 0 -8 11 -28 25
-44 14 -17 25 -35 25 -41 0 -10 18 -35 48 -66 6 -8 12 -20 12 -27 0 -7 18 -33
40 -57 22 -24 40 -49 40 -56 0 -8 11 -27 25 -43 14 -17 25 -35 25 -41 0 -10
18 -35 48 -66 6 -8 12 -20 12 -27 0 -12 15 -32 76 -100 13 -15 24 -33 24 -40
0 -7 14 -28 30 -47 17 -18 30 -39 30 -46 0 -6 11 -25 25 -41 14 -16 25 -37 25
-46 0 -10 4 -18 9 -18 5 0 19 -19 31 -42 26 -52 53 -100 85 -153 13 -22 29
-52 36 -67 6 -16 15 -28 20 -28 5 0 9 -8 9 -18 0 -10 13 -33 30 -52 16 -19 29
-41 30 -48 0 -8 18 -34 40 -59 22 -25 37 -49 34 -54 -3 -5 9 -24 25 -41 17
-18 31 -39 31 -46 0 -7 9 -22 20 -34 11 -12 20 -29 20 -38 0 -9 14 -29 30 -45
17 -16 30 -36 30 -45 0 -9 9 -25 20 -35 12 -10 19 -24 16 -31 -2 -6 6 -22 19
-34 14 -13 22 -27 19 -31 -3 -5 9 -24 25 -41 17 -18 31 -40 31 -49 0 -9 9 -24
20 -34 11 -10 20 -26 20 -35 0 -9 9 -25 20 -35 11 -10 20 -26 20 -35 0 -9 9
-25 20 -35 12 -10 19 -24 16 -31 -3 -7 4 -20 15 -30 10 -9 19 -25 19 -34 0 -9
9 -25 20 -35 11 -10 20 -26 20 -35 0 -9 9 -25 20 -35 11 -10 20 -26 20 -35 0
-9 9 -25 20 -35 11 -10 20 -26 20 -35 0 -9 9 -25 20 -35 11 -10 19 -23 17 -29
-2 -6 7 -22 19 -35 13 -14 21 -28 18 -33 -3 -4 9 -23 25 -40 17 -18 31 -40 31
-49 0 -9 9 -24 20 -34 11 -10 20 -26 20 -35 0 -9 9 -25 20 -35 11 -10 20 -26
20 -35 0 -9 9 -25 20 -35 11 -10 20 -26 20 -35 0 -10 7 -23 15 -30 8 -7 15
-20 15 -30 0 -10 7 -21 16 -24 9 -3 14 -12 11 -20 -3 -7 8 -28 24 -47 16 -19
29 -41 29 -49 0 -9 9 -22 20 -30 11 -8 20 -24 20 -35 0 -11 9 -27 20 -35 11
-8 20 -22 20 -31 0 -9 9 -28 20 -41 10 -14 17 -28 13 -32 -3 -3 4 -14 15 -25
14 -11 22 -30 22 -50 0 -17 5 -31 10 -31 6 0 10 -8 10 -18 0 -10 9 -28 20 -40
11 -12 20 -27 20 -35 0 -8 9 -22 20 -32 11 -10 20 -26 20 -35 0 -9 9 -25 20
-35 11 -10 20 -26 20 -36 0 -10 5 -21 11 -24 5 -4 8 -12 6 -18 -2 -6 7 -23 19
-36 13 -14 21 -28 18 -33 -3 -4 4 -18 15 -30 12 -12 21 -29 21 -38 0 -8 9 -22
20 -30 11 -8 20 -22 20 -30 0 -9 9 -26 20 -38 11 -12 20 -28 20 -36 0 -8 5
-18 10 -21 6 -3 10 -14 10 -24 0 -10 9 -26 20 -36 12 -10 19 -24 16 -31 -3 -7
4 -20 15 -30 10 -9 19 -25 19 -34 0 -10 6 -23 14 -29 8 -7 17 -23 20 -36 4
-14 11 -25 16 -25 6 0 10 -10 10 -23 0 -12 9 -29 20 -37 11 -8 20 -20 20 -27
0 -7 5 -22 10 -33 6 -11 15 -29 20 -40 6 -11 10 -26 10 -33 0 -8 9 -22 20 -32
11 -10 22 -33 26 -51 3 -18 15 -40 25 -50 10 -9 19 -25 19 -35 0 -10 5 -21 10
-24 6 -3 10 -14 10 -24 0 -10 9 -26 20 -36 11 -10 20 -26 20 -37 0 -10 5 -18
10 -18 6 0 10 -9 10 -19 0 -11 5 -23 10 -26 6 -3 10 -15 10 -26 0 -10 5 -19
10 -19 6 0 10 -9 10 -20 0 -11 9 -29 19 -39 11 -11 23 -36 26 -55 4 -19 16
-42 26 -52 10 -9 19 -23 19 -30 0 -7 9 -29 20 -49 11 -20 20 -42 20 -49 0 -7
9 -21 20 -31 11 -10 20 -26 20 -36 0 -10 5 -21 10 -24 6 -3 10 -15 10 -26 0
-10 5 -19 10 -19 6 0 10 -8 10 -19 0 -10 7 -24 15 -31 8 -7 15 -23 15 -35 0
-13 7 -25 15 -29 8 -3 15 -14 15 -24 0 -11 7 -25 15 -32 8 -7 15 -20 15 -30 0
-9 9 -25 20 -35 11 -10 20 -26 20 -37 0 -10 5 -18 10 -18 6 0 10 -7 10 -15 0
-8 4 -23 9 -33 5 -9 19 -38 30 -64 11 -25 25 -49 30 -53 6 -3 8 -12 5 -19 -3
-7 2 -16 10 -19 9 -4 16 -15 16 -26 0 -11 4 -22 10 -26 5 -3 7 -12 3 -20 -3
-8 0 -15 6 -15 6 0 11 -8 11 -18 0 -10 9 -28 20 -40 11 -12 20 -28 20 -36 0
-8 5 -18 10 -21 6 -3 10 -15 10 -26 0 -10 5 -19 10 -19 6 0 10 -11 10 -25 0
-14 5 -25 10 -25 6 0 10 -13 10 -29 0 -17 5 -33 10 -36 6 -3 10 -14 10 -24 0
-10 9 -26 19 -35 11 -10 17 -24 14 -32 -3 -8 2 -16 10 -20 8 -3 18 -21 22 -41
3 -20 13 -42 20 -50 8 -7 12 -20 9 -28 -4 -8 -1 -15 5 -15 6 0 11 -8 11 -18 0
-11 9 -27 20 -37 11 -10 20 -26 20 -36 0 -10 5 -21 10 -24 6 -3 10 -15 10 -26
0 -10 5 -19 10 -19 6 0 10 -7 10 -15 0 -8 5 -25 12 -38 25 -50 28 -58 23 -66
-3 -5 1 -11 9 -14 7 -3 17 -23 21 -44 4 -21 11 -41 17 -44 5 -3 11 -12 12 -20
4 -19 16 -51 27 -71 5 -10 9 -25 9 -33 0 -8 9 -20 20 -27 11 -7 20 -23 20 -35
0 -13 5 -23 10 -23 6 0 10 -9 10 -19 0 -11 5 -23 10 -26 6 -3 10 -15 10 -26 0
-10 5 -19 10 -19 6 0 10 -9 10 -20 0 -10 8 -27 19 -37 10 -10 22 -34 26 -53 4
-19 12 -38 17 -41 5 -3 11 -12 12 -20 4 -19 16 -51 27 -71 5 -10 9 -25 9 -33
0 -8 5 -15 10 -15 6 0 10 -9 10 -19 0 -11 5 -23 10 -26 6 -3 10 -15 10 -26 0
-10 5 -19 10 -19 6 0 10 -11 10 -25 0 -14 5 -25 10 -25 6 0 10 -13 10 -29 0
-17 5 -33 10 -36 6 -3 10 -19 10 -35 0 -16 4 -31 9 -34 5 -4 12 -24 16 -45 4
-22 12 -42 20 -45 7 -2 16 -23 20 -45 4 -23 11 -41 16 -41 5 0 9 -9 9 -19 0
-11 5 -23 10 -26 6 -3 10 -15 10 -26 0 -10 5 -19 10 -19 6 0 10 -9 10 -19 0
-11 5 -23 10 -26 6 -3 10 -15 10 -26 0 -10 5 -19 10 -19 6 0 10 -11 10 -25 0
-14 5 -25 10 -25 6 0 10 -7 10 -15 0 -8 4 -23 9 -33 9 -17 20 -45 21 -60 1 -4
7 -14 15 -22 7 -8 16 -32 20 -52 4 -21 11 -38 16 -38 5 0 9 -8 9 -17 0 -10 7
-26 14 -36 8 -10 12 -26 9 -36 -3 -10 0 -22 6 -25 6 -4 11 -14 11 -22 0 -8 9
-24 20 -36 11 -12 20 -30 20 -40 0 -10 5 -18 10 -18 6 0 10 -11 10 -25 0 -14
4 -33 9 -43 17 -31 43 -94 45 -107 1 -7 7 -19 13 -26 6 -8 14 -31 18 -51 4
-20 14 -39 22 -42 10 -4 13 -14 9 -30 -3 -14 -2 -28 4 -31 5 -3 10 -15 10 -26
0 -10 5 -19 10 -19 6 0 10 -9 10 -19 0 -11 5 -23 10 -26 6 -3 10 -15 10 -26 0
-10 5 -19 10 -19 6 0 10 -11 10 -25 0 -14 5 -25 10 -25 6 0 10 -11 10 -25 0
-14 4 -33 9 -43 27 -52 33 -72 28 -86 -3 -8 0 -19 7 -25 7 -6 16 -32 20 -57 3
-25 13 -52 21 -60 8 -9 13 -19 10 -24 -3 -5 -1 -11 5 -15 5 -3 10 -15 10 -26
0 -10 5 -19 10 -19 6 0 10 -16 10 -35 0 -19 5 -35 10 -35 6 0 10 -9 10 -19 0
-11 5 -23 10 -26 6 -3 10 -15 10 -26 0 -10 5 -19 10 -19 6 0 10 -11 10 -25 0
-14 4 -33 9 -43 27 -51 51 -115 51 -137 0 -14 5 -25 11 -25 6 0 9 -7 6 -15 -4
-8 -2 -17 3 -20 6 -4 10 -15 10 -25 0 -10 5 -20 11 -22 5 -2 11 -11 13 -20 1
-10 5 -21 9 -24 4 -4 7 -22 7 -41 0 -18 4 -33 9 -33 5 0 15 -20 22 -45 7 -25
17 -45 21 -45 4 0 8 -9 8 -19 0 -11 5 -23 10 -26 6 -3 10 -19 10 -36 0 -16 5
-29 10 -29 6 0 10 -9 10 -19 0 -11 5 -23 10 -26 6 -3 10 -19 10 -35 0 -16 4
-31 9 -34 5 -4 12 -24 16 -45 4 -22 12 -42 19 -44 7 -3 16 -28 20 -56 4 -28
11 -51 16 -51 6 0 10 -15 10 -34 0 -19 5 -38 10 -41 6 -3 10 -15 10 -26 0 -10
5 -19 10 -19 6 0 10 -13 10 -29 0 -17 5 -33 10 -36 6 -3 10 -15 10 -26 0 -10
5 -19 10 -19 6 0 10 -16 10 -35 0 -19 5 -35 10 -35 6 0 10 -9 10 -19 0 -11 5
-23 10 -26 6 -3 10 -24 10 -45 0 -21 5 -42 11 -45 5 -4 9 -17 7 -30 -1 -12 3
-30 11 -39 7 -9 11 -25 8 -36 -3 -11 -1 -23 4 -26 5 -3 9 -14 9 -25 0 -10 5
-19 10 -19 6 0 10 -16 10 -35 0 -19 5 -35 10 -35 6 0 10 -11 10 -25 0 -14 5
-34 10 -45 5 -11 15 -29 20 -40 5 -11 10 -31 10 -44 0 -14 5 -28 10 -31 6 -3
10 -15 10 -26 0 -10 5 -19 10 -19 6 0 10 -9 10 -19 0 -11 5 -23 10 -26 6 -3
10 -17 10 -31 0 -13 4 -32 9 -42 12 -21 25 -73 22 -88 -1 -7 5 -14 13 -17 9
-4 17 -28 21 -66 4 -33 13 -65 20 -71 8 -6 11 -18 8 -26 -3 -8 0 -14 6 -14 6
0 11 -16 11 -35 0 -19 5 -35 10 -35 6 0 10 -13 10 -29 0 -17 5 -33 10 -36 6
-3 10 -17 10 -31 0 -13 5 -33 10 -44 6 -11 15 -29 20 -40 6 -11 10 -31 10 -45
0 -14 5 -25 10 -25 6 0 10 -16 10 -35 0 -19 5 -35 11 -35 6 0 9 -6 6 -14 -3
-8 0 -20 7 -26 8 -6 17 -36 21 -68 4 -31 12 -63 18 -71 7 -8 13 -24 14 -35 7
-58 16 -96 24 -96 5 0 9 -9 9 -19 0 -11 5 -23 10 -26 6 -3 10 -19 10 -35 0
-16 5 -32 10 -35 6 -3 10 -19 10 -36 0 -16 5 -29 10 -29 6 0 10 -13 10 -29 0
-17 5 -33 10 -36 6 -3 10 -22 10 -41 0 -19 5 -34 10 -34 6 0 10 -13 10 -28 0
-15 4 -32 9 -38 5 -5 11 -27 14 -49 19 -135 31 -190 43 -203 8 -8 12 -22 9
-32 -3 -10 -1 -21 5 -25 5 -3 10 -22 10 -41 0 -19 5 -34 10 -34 6 0 10 -13 10
-29 0 -17 5 -33 10 -36 6 -3 10 -19 10 -34 0 -15 4 -31 8 -36 10 -12 26 -67
43 -150 7 -33 16 -65 20 -70 4 -6 13 -33 20 -60 6 -28 16 -56 22 -63 5 -6 7
-25 4 -41 -4 -19 -2 -31 7 -34 13 -5 31 -78 27 -105 -1 -8 5 -22 14 -32 9 -10
15 -27 14 -37 -2 -10 2 -28 9 -40 7 -13 10 -33 6 -47 -3 -13 -1 -27 5 -30 6
-4 11 -18 11 -31 0 -12 7 -26 16 -29 13 -5 15 -15 11 -41 -3 -21 -1 -35 6 -38
6 -2 10 -19 9 -39 -2 -25 2 -38 14 -42 9 -3 14 -13 11 -20 -3 -8 1 -20 9 -27
11 -9 14 -22 10 -45 -5 -24 -2 -33 10 -38 12 -5 15 -14 10 -40 -5 -26 -3 -35
10 -40 13 -5 15 -15 11 -42 -4 -26 -2 -37 9 -41 12 -4 14 -14 10 -38 -5 -25
-3 -34 10 -39 11 -4 14 -13 11 -27 -3 -13 0 -22 9 -26 10 -4 14 -17 12 -40 -1
-21 3 -37 11 -42 9 -6 12 -20 9 -41 -3 -21 0 -34 9 -37 8 -3 13 -21 13 -44 0
-21 5 -39 11 -39 6 0 9 -15 7 -37 -2 -22 2 -38 10 -41 7 -2 12 -21 12 -43 0
-22 5 -39 11 -39 8 0 10 -17 7 -50 -4 -38 -1 -53 10 -59 12 -7 14 -19 9 -54
-5 -35 -3 -46 9 -51 12 -4 14 -14 9 -36 -5 -21 -2 -35 9 -46 10 -10 14 -24 10
-39 -4 -16 0 -30 10 -40 10 -11 14 -25 10 -40 -4 -16 0 -30 10 -40 10 -10 13
-25 10 -44 -4 -21 -1 -30 11 -35 13 -4 15 -13 10 -36 -5 -21 -2 -35 10 -46 11
-11 14 -25 10 -42 -4 -17 -1 -28 12 -37 14 -11 16 -18 7 -32 -8 -14 -8 -30 3
-63 7 -25 20 -74 29 -110 8 -36 22 -89 30 -117 l15 -53 1376 0 c1333 0 1376 1
1360 18 -10 10 -17 33 -17 50 0 17 -4 34 -10 37 -5 3 -10 22 -10 41 0 19 -4
34 -10 34 -5 0 -10 18 -10 39 0 22 -4 43 -10 46 -5 3 -10 21 -10 40 0 19 -4
37 -10 40 -5 3 -10 21 -10 40 0 19 -4 37 -10 40 -5 3 -10 21 -10 40 0 19 -5
37 -11 40 -6 4 -9 27 -8 52 2 29 -2 47 -10 53 -10 6 -12 21 -8 54 5 36 3 47
-10 54 -12 7 -14 18 -10 40 5 23 2 34 -10 40 -12 7 -14 18 -10 40 5 23 2 34
-10 40 -12 7 -14 18 -10 40 5 23 2 34 -10 40 -12 7 -14 18 -10 40 4 20 1 34
-8 42 -9 7 -12 22 -9 39 4 18 0 32 -10 40 -9 8 -16 22 -16 32 0 10 -5 21 -11
25 -6 3 -9 19 -5 34 3 19 0 33 -10 41 -11 9 -14 22 -10 45 5 24 2 33 -10 38
-13 5 -15 14 -10 41 4 22 3 35 -4 35 -5 0 -10 14 -10 32 0 17 -6 39 -13 47
-20 24 -38 86 -31 105 4 10 -1 25 -11 36 -11 12 -14 26 -10 39 4 13 1 27 -9
36 -8 9 -13 22 -10 29 3 8 1 17 -5 21 -6 3 -11 23 -11 44 0 23 -6 44 -16 52
-9 8 -13 21 -10 35 4 13 2 26 -4 29 -5 3 -10 16 -10 27 0 23 -17 81 -31 110
-5 10 -9 33 -9 52 0 19 -4 36 -8 38 -8 3 -32 79 -58 183 -26 105 -36 140 -45
157 -5 10 -9 27 -9 37 0 11 -5 23 -11 26 -5 4 -9 17 -8 28 2 12 -3 32 -10 45
-7 13 -10 30 -7 37 3 8 1 17 -4 20 -6 4 -10 18 -10 33 0 15 -7 36 -15 46 -8
11 -13 28 -9 38 3 10 1 18 -5 18 -6 0 -11 20 -11 45 0 25 -4 45 -10 45 -5 0
-10 20 -10 44 0 25 -4 48 -10 51 -5 3 -10 19 -10 36 0 16 -4 29 -10 29 -5 0
-10 16 -10 35 0 19 -4 35 -10 35 -5 0 -10 16 -10 35 0 19 -4 35 -10 35 -5 0
-10 13 -10 29 0 17 -5 33 -11 37 -6 3 -9 17 -6 30 2 13 -2 29 -9 35 -7 6 -16
32 -20 57 -4 26 -14 52 -22 58 -9 7 -13 19 -9 32 3 12 1 25 -4 28 -5 3 -9 21
-9 40 0 19 -4 34 -10 34 -5 0 -10 13 -10 29 0 17 -4 33 -10 36 -5 3 -10 15
-10 26 0 10 -4 19 -10 19 -5 0 -10 16 -10 35 0 19 -4 35 -10 35 -5 0 -10 11
-10 25 0 14 -4 33 -9 43 -27 52 -33 72 -28 86 3 8 -1 20 -9 26 -8 7 -14 25
-14 41 0 15 -5 31 -11 35 -6 3 -8 17 -5 29 3 13 1 25 -5 27 -5 2 -11 10 -13
18 -1 8 -7 25 -14 37 -7 12 -9 28 -6 36 3 8 1 18 -5 22 -6 3 -11 19 -11 35 0
16 -4 32 -10 35 -5 3 -10 15 -10 26 0 10 -4 19 -10 19 -5 0 -10 16 -10 35 0
19 -4 35 -10 35 -5 0 -10 13 -10 29 0 17 -4 33 -10 36 -5 3 -10 15 -10 26 0
10 -4 19 -10 19 -5 0 -10 9 -10 19 0 11 -4 23 -10 26 -5 3 -10 19 -10 35 0 16
-4 31 -9 34 -10 6 -25 64 -22 84 1 8 -5 22 -15 33 -9 10 -14 25 -11 33 4 9 2
18 -3 21 -6 4 -10 15 -10 26 0 11 -7 27 -15 36 -9 8 -13 23 -10 33 3 10 1 21
-5 25 -5 3 -10 19 -10 35 0 16 -4 32 -10 35 -5 3 -10 24 -10 45 0 21 -4 42
-10 45 -5 3 -10 15 -10 26 0 10 -4 19 -10 19 -5 0 -10 16 -10 35 0 19 -4 35
-10 35 -5 0 -10 9 -10 19 0 11 -4 23 -10 26 -5 3 -10 19 -10 35 0 16 -4 31
-10 35 -5 3 -7 12 -4 19 3 7 -1 16 -9 19 -8 3 -17 27 -21 56 -4 27 -11 53 -16
56 -6 3 -10 19 -10 35 0 16 -4 32 -10 35 -5 3 -10 15 -10 26 0 10 -4 19 -10
19 -5 0 -10 9 -10 19 0 11 -4 23 -10 26 -5 3 -10 19 -10 36 0 16 -4 29 -10 29
-5 0 -10 11 -10 25 0 14 -4 25 -10 25 -5 0 -10 11 -10 25 0 14 -4 33 -9 43
-17 31 -43 94 -45 107 -1 7 -8 20 -15 29 -7 9 -11 25 -8 36 3 11 1 23 -4 26
-5 3 -9 14 -9 25 0 10 -4 19 -10 19 -5 0 -10 9 -10 19 0 11 -4 23 -10 26 -5 3
-10 15 -10 26 0 10 -4 19 -10 19 -5 0 -10 16 -10 35 0 19 -4 35 -10 35 -5 0
-10 11 -10 25 0 14 -4 25 -10 25 -5 0 -10 9 -10 19 0 11 -4 23 -10 26 -5 3
-10 19 -10 36 0 16 -4 29 -10 29 -5 0 -10 9 -10 19 0 11 -5 23 -11 26 -6 4 -8
13 -5 20 3 8 -1 18 -8 24 -8 6 -16 33 -20 60 -4 31 -12 51 -22 55 -9 3 -14 13
-10 21 3 8 1 17 -4 20 -6 4 -10 15 -10 26 0 10 -4 19 -10 19 -5 0 -10 16 -10
35 0 19 -4 35 -10 35 -5 0 -10 13 -10 29 0 17 -4 33 -10 36 -5 3 -10 15 -10
26 0 10 -4 19 -10 19 -5 0 -10 16 -10 35 0 19 -4 35 -10 35 -5 0 -10 11 -10
25 0 14 -4 25 -10 25 -5 0 -10 9 -10 19 0 11 -4 23 -10 26 -5 3 -10 15 -10 26
0 10 -5 19 -10 19 -6 0 -10 6 -8 13 1 6 -4 22 -11 35 -7 13 -10 30 -7 37 3 8
1 17 -4 20 -6 4 -10 15 -10 26 0 10 -4 19 -10 19 -5 0 -10 7 -10 15 0 8 -4 24
-10 35 -5 11 -14 29 -20 40 -5 11 -10 27 -10 35 0 8 -4 15 -10 15 -5 0 -10 9
-10 19 0 11 -4 23 -10 26 -5 3 -10 19 -10 36 0 16 -4 29 -10 29 -5 0 -10 9
-10 20 0 11 -9 29 -20 40 -12 12 -23 40 -27 68 -3 26 -12 50 -19 55 -7 4 -15
25 -19 47 -4 22 -11 40 -16 40 -5 0 -9 9 -9 19 0 11 -4 23 -10 26 -5 3 -10 15
-10 26 0 10 -4 19 -10 19 -5 0 -10 9 -10 19 0 11 -4 23 -10 26 -5 3 -10 15
-10 26 0 10 -4 19 -10 19 -5 0 -10 11 -10 25 0 14 -4 25 -10 25 -5 0 -10 7
-10 15 0 8 -4 23 -9 33 -15 27 -24 56 -22 68 1 7 -5 14 -13 17 -8 3 -17 24
-21 46 -4 23 -11 41 -16 41 -5 0 -9 9 -9 19 0 11 -4 23 -10 26 -5 3 -10 15
-10 26 0 10 -4 19 -10 19 -5 0 -10 9 -10 19 0 11 -4 23 -10 26 -5 3 -10 19
-10 35 0 16 -4 32 -10 35 -5 3 -10 19 -10 36 0 16 -4 29 -10 29 -5 0 -10 7
-10 15 0 8 -5 25 -12 38 -25 50 -28 58 -23 67 3 5 1 11 -4 15 -14 8 -41 66
-36 76 3 4 1 10 -5 14 -5 3 -10 15 -10 26 0 10 -4 19 -10 19 -5 0 -10 9 -10
19 0 11 -4 23 -10 26 -5 3 -10 14 -10 24 0 10 -9 26 -20 36 -11 10 -20 26 -20
37 0 10 -4 18 -10 18 -5 0 -10 9 -10 19 0 11 -4 23 -10 26 -5 3 -10 15 -10 26
0 10 -4 19 -10 19 -5 0 -10 11 -10 23 0 13 -9 32 -20 42 -11 10 -23 35 -26 56
-4 21 -12 40 -20 43 -8 3 -17 23 -20 46 -4 22 -10 40 -15 40 -5 0 -9 9 -9 19
0 11 -4 23 -10 26 -5 3 -10 15 -10 26 0 10 -4 19 -10 19 -5 0 -10 9 -10 19 0
11 -4 23 -10 26 -5 3 -10 15 -10 26 0 10 -4 19 -10 19 -5 0 -10 9 -10 19 0 11
-5 23 -11 26 -6 4 -8 13 -5 20 2 7 -4 21 -15 31 -10 9 -19 23 -19 30 0 10 -15
43 -51 116 -5 10 -9 25 -9 33 0 8 -4 15 -10 15 -5 0 -10 8 -10 18 0 10 -9 28
-20 40 -11 12 -20 28 -20 36 0 8 -4 18 -10 21 -5 3 -10 17 -10 31 0 13 -4 32
-9 42 -36 73 -51 106 -51 116 0 7 -9 21 -20 31 -12 10 -18 25 -16 32 3 7 1 13
-4 13 -6 0 -10 11 -10 25 0 14 -4 25 -10 25 -5 0 -10 9 -10 19 0 11 -4 23 -10
26 -5 3 -10 13 -10 21 0 8 -9 24 -20 36 -11 12 -20 30 -20 40 0 10 -4 18 -10
18 -5 0 -10 9 -10 19 0 11 -4 23 -10 26 -5 3 -10 15 -10 26 0 10 -4 19 -10 19
-5 0 -10 9 -10 19 0 11 -7 27 -15 35 -9 8 -21 29 -26 46 -6 16 -15 30 -20 30
-5 0 -9 9 -9 19 0 11 -4 23 -10 26 -5 3 -10 14 -10 24 0 10 -9 26 -20 36 -11
10 -20 26 -20 37 0 10 -4 18 -10 18 -5 0 -10 9 -10 19 0 11 -4 23 -10 26 -5 3
-10 14 -10 24 0 10 -9 26 -20 36 -12 10 -19 24 -16 31 3 7 -2 18 -9 24 -8 7
-13 16 -10 20 3 4 -2 13 -11 20 -8 7 -13 19 -10 26 2 6 -4 21 -15 32 -10 12
-19 28 -19 36 0 8 -4 18 -10 21 -5 3 -10 14 -10 24 0 10 -9 26 -20 36 -11 10
-20 26 -20 37 0 10 -4 18 -10 18 -5 0 -10 9 -10 19 0 11 -4 23 -10 26 -5 3
-10 15 -10 26 0 10 -4 19 -10 19 -5 0 -10 9 -10 20 0 11 -9 29 -19 39 -11 11
-23 36 -26 55 -4 19 -16 42 -26 52 -10 9 -19 25 -19 36 0 10 -4 18 -10 18 -5
0 -10 11 -10 25 0 14 -9 30 -20 37 -11 7 -20 23 -20 35 0 13 -4 23 -10 23 -5
0 -10 9 -10 19 0 11 -4 23 -10 26 -5 3 -10 14 -10 24 0 10 -9 26 -20 36 -11
10 -20 26 -20 35 0 9 -9 25 -19 34 -11 10 -17 24 -14 32 3 8 0 14 -6 14 -6 0
-11 8 -11 18 0 10 -9 28 -20 40 -11 12 -20 27 -20 35 0 7 -9 23 -20 35 -11 12
-20 28 -20 36 0 8 -4 18 -10 21 -5 3 -10 14 -10 24 0 10 -9 26 -20 36 -11 10
-20 26 -20 35 0 10 -7 23 -15 30 -8 7 -15 19 -15 27 0 7 -9 23 -20 35 -11 12
-20 28 -20 35 0 8 -9 23 -20 35 -11 12 -20 30 -20 40 0 10 -4 18 -10 18 -5 0
-10 8 -10 18 0 11 -9 27 -20 37 -11 10 -20 26 -20 37 0 10 -9 26 -20 35 -11
10 -20 25 -20 34 0 9 -9 24 -20 34 -12 11 -22 37 -26 66 -4 28 -14 55 -25 65
-11 9 -19 23 -19 31 0 8 -9 23 -20 35 -11 12 -20 30 -20 40 0 10 -9 23 -20 30
-11 7 -20 20 -20 29 0 9 -10 28 -21 43 -12 15 -19 30 -16 33 3 3 -7 19 -23 37
-17 17 -30 39 -30 49 0 9 -4 17 -10 17 -5 0 -10 8 -10 18 0 10 -9 28 -20 40
-11 12 -20 27 -20 35 0 7 -9 23 -20 35 -11 12 -20 27 -20 35 0 7 -9 23 -20 35
-11 12 -20 28 -20 37 0 8 -9 23 -20 32 -11 10 -20 25 -20 34 0 9 -11 29 -25
45 -14 16 -25 36 -25 44 0 9 -9 22 -20 30 -11 8 -20 24 -20 35 0 11 -9 27 -20
35 -11 8 -20 21 -20 28 0 8 -9 27 -21 43 -11 16 -17 29 -14 29 4 0 -3 12 -14
26 -12 15 -21 34 -21 43 0 9 -9 23 -20 31 -11 8 -20 22 -20 30 0 9 -9 26 -20
38 -11 12 -20 27 -20 35 0 7 -9 23 -20 35 -11 12 -20 27 -20 35 0 7 -9 23 -20
35 -11 12 -20 27 -20 35 0 8 -9 22 -20 32 -11 10 -20 26 -20 35 0 9 -11 30
-25 46 -14 16 -25 36 -25 44 0 9 -9 22 -20 30 -11 8 -20 24 -20 35 0 11 -9 26
-20 33 -11 7 -20 20 -20 29 0 9 -12 32 -27 52 -28 36 -53 77 -72 119 -6 12
-20 32 -31 44 -11 12 -20 29 -20 37 0 9 -18 34 -40 56 -21 22 -39 47 -40 55 0
9 -14 32 -31 53 -17 20 -28 41 -25 46 3 4 -3 16 -14 26 -11 10 -20 24 -20 32
0 8 -9 23 -20 35 -11 12 -20 28 -20 35 0 8 -9 23 -20 35 -11 12 -20 29 -20 39
0 9 -7 22 -14 29 -14 11 -56 89 -56 103 0 4 -15 24 -32 43 -18 20 -32 42 -30
48 1 7 -11 25 -28 41 -16 16 -30 35 -30 43 0 16 -65 101 -87 115 -7 4 -13 16
-13 25 0 10 -11 29 -25 44 -14 15 -25 33 -25 40 0 8 -13 29 -30 48 -16 19 -29
42 -30 50 0 9 -18 33 -40 55 -21 22 -39 47 -40 56 0 9 -13 31 -29 50 -16 18
-28 36 -26 40 2 3 -9 21 -25 40 -16 19 -29 41 -30 50 0 8 -13 28 -30 44 -16
16 -30 36 -30 45 0 9 -11 30 -25 46 -14 16 -25 34 -25 41 0 7 -18 31 -40 55
-22 24 -40 50 -40 58 0 9 -18 36 -40 60 -22 25 -40 52 -40 60 0 8 -16 32 -35
52 -19 20 -35 43 -35 51 0 8 -18 35 -40 60 -22 25 -40 50 -40 57 0 6 -18 33
-40 59 -22 26 -40 54 -40 62 0 8 -16 31 -36 52 -20 21 -37 44 -38 53 -2 13
-49 76 -83 110 -7 7 -13 19 -13 26 0 7 -13 29 -29 48 -15 19 -31 44 -34 55 -4
11 -25 39 -47 63 -22 23 -40 48 -40 55 0 7 -22 39 -49 72 -26 33 -51 69 -55
80 -3 11 -24 38 -46 60 -21 22 -39 47 -40 56 0 8 -27 46 -60 85 -32 38 -60 76
-60 84 -1 21 -56 80 -75 80 -9 0 -15 9 -15 24 0 13 -3 26 -7 28 -16 6 -113
127 -111 136 2 5 -9 24 -24 41 -16 17 -28 36 -28 43 0 12 -15 32 -76 100 -13
15 -24 34 -24 41 0 12 -21 38 -126 159 -13 15 -24 34 -24 41 0 7 -8 22 -18 33
-9 10 -40 46 -67 79 -28 33 -52 62 -55 65 -3 3 -25 30 -49 60 -25 30 -50 60
-56 65 -22 20 -90 108 -85 110 5 2 -34 57 -57 81 -7 7 -13 18 -13 25 0 6 -21
37 -47 68 -27 31 -55 64 -63 74 -8 10 -30 35 -47 55 -18 20 -33 43 -33 50 0
18 -52 82 -67 82 -6 0 -33 26 -60 58 -26 31 -50 59 -53 62 -27 26 -90 110 -90
120 0 7 -17 31 -37 54 -21 23 -54 61 -73 85 -19 24 -50 59 -67 77 -18 19 -33
42 -33 52 0 9 -19 37 -41 62 -52 58 -65 73 -123 143 -27 31 -54 57 -60 57 -6
0 -20 12 -31 26 -10 14 -27 35 -38 47 -10 12 -33 40 -50 61 -135 166 -303 344
-359 381 -16 9 -28 26 -28 36 0 11 -7 19 -15 19 -8 0 -15 8 -15 19 0 10 -13
28 -30 41 -16 13 -30 30 -30 39 0 9 -13 25 -30 34 -16 10 -30 26 -30 35 0 9
-16 28 -35 41 -19 13 -35 31 -35 40 0 9 -13 25 -30 34 -16 10 -30 26 -30 36 0
9 -20 29 -45 45 -25 16 -45 37 -45 46 0 19 -30 50 -48 50 -7 0 -12 9 -12 20 0
11 -13 29 -30 42 -16 12 -30 29 -30 38 0 9 -13 24 -30 33 -16 10 -30 24 -30
32 0 8 -16 26 -35 41 -19 14 -33 30 -30 34 3 5 -10 21 -30 36 -19 14 -35 32
-35 40 0 7 -13 23 -30 36 -16 12 -30 26 -30 31 0 11 -434 447 -445 447 -3 0
-21 16 -39 35 -19 19 -37 35 -40 35 -4 0 -22 16 -40 35 -19 19 -36 35 -40 35
-3 0 -45 38 -92 85 -48 47 -90 85 -94 85 -4 0 -37 32 -74 70 -37 39 -70 70
-73 70 -3 0 -37 29 -74 65 -38 36 -76 65 -84 65 -8 0 -15 5 -15 10 0 6 -4 10
-9 10 -5 0 -54 44 -109 98 -124 120 -209 201 -287 270 -88 79 -96 85 -140 118
-42 31 -102 82 -145 125 -14 14 -40 34 -58 44 -18 11 -32 24 -32 30 0 5 -30
30 -66 55 -37 25 -74 55 -84 67 -10 13 -20 23 -23 23 -4 0 -17 10 -30 23 -28
25 -65 54 -122 97 -22 16 -49 37 -60 47 -11 10 -33 27 -50 37 -16 11 -34 25
-38 33 -4 7 -14 13 -21 13 -7 0 -21 8 -32 18 -10 9 -29 24 -40 32 -12 8 -47
34 -77 58 -31 23 -59 42 -63 42 -3 0 -21 12 -39 28 -61 51 -75 62 -75 55 0 -3
-10 3 -22 14 -13 11 -63 46 -113 78 -49 32 -92 61 -95 64 -3 3 -21 15 -40 25
-19 10 -56 34 -83 52 -26 19 -52 34 -57 34 -6 0 -10 4 -10 9 0 5 -12 14 -27
20 -36 14 -176 101 -185 115 -4 6 -8 7 -8 2 0 -5 -10 -1 -22 10 -13 11 -41 28
-63 39 -22 11 -46 26 -53 32 -7 7 -18 13 -23 13 -5 0 -33 16 -63 35 -30 19
-59 35 -63 35 -5 0 -25 11 -46 25 -20 14 -37 23 -37 20 0 -4 -12 2 -27 13 -16
10 -55 32 -88 49 -129 66 -190 98 -195 104 -3 4 -16 9 -30 13 -26 8 -92 38
-100 46 -11 11 -53 32 -105 51 -30 11 -55 25 -55 30 0 5 -7 9 -16 9 -8 0 -48
15 -87 34 -90 43 -165 76 -170 76 -3 0 -26 10 -53 22 -27 12 -51 22 -54 23 -5
0 -45 18 -146 66 -23 10 -46 19 -52 19 -6 0 -21 4 -34 9 -13 5 -26 9 -31 10
-4 0 -29 12 -57 26 -27 14 -55 25 -62 25 -6 0 -30 8 -52 19 -23 10 -84 33
-136 51 -52 18 -102 35 -110 38 -8 3 -19 6 -25 8 -5 2 -48 17 -95 33 -47 17
-125 42 -175 56 -49 14 -97 29 -105 32 -8 3 -17 7 -20 8 -3 0 -32 9 -65 19
-33 10 -125 36 -205 57 -80 21 -152 41 -160 44 -8 2 -44 11 -80 19 -36 8 -130
30 -210 50 -80 20 -194 45 -255 57 -60 11 -155 29 -210 40 -55 11 -116 21
-135 24 -19 3 -44 7 -55 10 -174 37 -742 101 -1095 124 -391 26 -420 27 -570
21z"/>
<path d="M4250 13731 l0 -9251 2275 0 2275 0 0 3123 0 3124 513 6 c538 7 728
15 1122 47 2534 210 4637 1122 5861 2540 685 794 1106 1693 1259 2690 123 798
83 1736 -106 2509 -196 801 -574 1524 -1126 2151 -1134 1288 -3048 2068 -5547
2260 -570 43 -555 43 -3593 47 l-2933 4 0 -9250z m5825 5739 c1752 -94 2770
-683 3071 -1778 68 -248 94 -463 94 -771 0 -443 -77 -800 -245 -1139 -404
-814 -1244 -1325 -2450 -1492 -338 -46 -454 -52 -1112 -57 l-633 -5 0 2626 0
2626 543 0 c298 0 628 -5 732 -10z"/>
</g>
</svg>
