<svg version="1" xmlns="http://www.w3.org/2000/svg" width="682.667" height="682.667" viewBox="0 0 512.000000 512.000000"><path d="M126.8 58.5c-20.3 3.4-51.2 18-73 34.5-10.3 7.8-24.1 20-23.5 20.7.3.2 2.9-1 5.8-2.8 12.7-7.4 33.2-15 51.5-18.9 12.7-2.7 40.9-3.8 55.1-2.1 19.6 2.4 39 8.1 57.8 17 77.3 36.6 147 152.7 190.3 317.1l4.9 18.5 24.2.3c13.2.1 24.1 0 24.1-.2 0-3.3-11.8-47.1-17.7-65.6-20.1-63.3-47.3-120.7-82.1-173.5-9.5-14.6-30.4-43.3-35.8-49.5-1.3-1.4-3.7-4.4-5.6-6.7-18.2-22.9-47.4-50.6-66.3-62.9-32.6-21.1-76.4-31.5-109.7-25.9z"/><path d="M198 57.3c.3.3 5 2 10.5 3.7 41.1 13 78.3 44.5 123.7 104.5 33 43.6 62.9 96.3 84.5 149 14.2 34.5 29.1 81.4 37.4 117.5 1.2 5.2 2.6 10.1 3.1 10.7 1.2 1.5 41.3 1.9 42.2.5.5-.9-3-15.5-9.4-38.7-10.5-38.2-24.1-75.8-39.5-109.5-39-85.4-97.9-165.5-151.3-205.8-17.5-13.1-43.2-24.5-66.5-29.3-9.3-1.9-35.9-3.9-34.7-2.6zM64.2 303.2l.3 140.3 34.8.3 34.7.2v-95h8.4c11.1 0 27-1.7 38.1-4 55.4-11.5 87.5-45 87.5-91.5 0-23.9-7.7-43.4-23.4-59.1-12.4-12.4-27.7-20.5-49.5-26-18.6-4.8-28.4-5.4-81.7-5.4H64l.2 140.2zm106.3-84.7c14.2 3.8 22.5 9.8 27.2 19.3 2.5 5.2 2.8 6.7 2.8 16.7 0 9.8-.3 11.6-2.7 16.7-7.2 15.5-23.1 23.2-50.5 24.5l-13.3.6v-80.6l15.3.6c9.3.3 17.5 1.1 21.2 2.2z"/></svg>